<?xml version="1.0" encoding="utf-8"?>
<!-- Generator: Adobe Illustrator 16.0.0, SVG Export Plug-In . SVG Version: 6.00 Build 0)  -->
<!DOCTYPE svg PUBLIC "-//W3C//DTD SVG 1.1//EN" "http://www.w3.org/Graphics/SVG/1.1/DTD/svg11.dtd">
<svg version="1.1" id="Capa_1" xmlns="http://www.w3.org/2000/svg" xmlns:xlink="http://www.w3.org/1999/xlink" x="0px" y="0px"
	 width="841.89px" height="595.28px" viewBox="0 0 841.89 595.28" enable-background="new 0 0 841.89 595.28" xml:space="preserve">
<rect y="0.263" fill="#B6DAE8" width="841.89" height="487.68"/>
<path fill="#D8E6EA" d="M805.696,224.496c-2.889-3.853-6.286-7.096-10.021-9.726c-1.148-5.209-3.443-10.012-6.618-14.16
	c-0.211-5.354-1.986-10.7-5.443-15.311c-9.062-12.086-26.204-14.538-38.291-5.477c-0.426,0.319-0.836,0.65-1.237,0.989
	c-2.355-1.832-4.865-3.401-7.488-4.703c0.524-4.199-0.503-8.598-3.242-12.251c-5.609-7.481-16.223-9-23.705-3.391
	c-4.323,3.242-6.642,8.155-6.757,13.168c-4.53,1.478-8.901,3.699-12.926,6.716c-4.563,3.421-8.272,7.554-11.114,12.122
	c-1.586,0.348-3.143,0.768-4.663,1.263c-6.737-3.406-14.98-3.21-21.673,1.037c-14.256-6.257-31.377-4.87-44.723,5.136
	c-1.812,1.358-3.488,2.83-5.032,4.395c-0.512-0.023-1.023-0.043-1.541-0.043c-11.27,0-21.183,5.54-26.941,13.925
	c-8.451-7.407-19.709-11.929-32.072-11.929c-23.64,0-43.238,16.525-46.884,38.16c-4.9-1.889-10.249-2.938-15.855-2.938
	c-23.453,0-42.466,18.191-42.466,40.631c0,1.368,0.073,2.72,0.211,4.053c-5.066-4.426-11.809-7.127-19.21-7.127
	c-12.729,0-23.506,7.986-27.165,19.006c-5.418-3.437-11.913-5.444-18.901-5.444c-11.252,0-21.236,5.192-27.48,13.209
	c-7.64-5.021-16.887-7.965-26.856-7.965c-3.412,0-6.736,0.352-9.944,1.005c0.016-0.401,0.032-0.802,0.032-1.207
	c0-17.174-14.551-31.096-32.5-31.096c-11.837,0-22.193,6.056-27.875,15.105c-0.594-6.618-4.016-12.45-9.086-16.429
	c-0.216-8.956-3.11-17.933-8.894-25.647c-4.839-6.454-11.095-11.211-18.008-14.189c2.712-8.209,1.504-17.566-4.075-25.008
	c-9.062-12.086-26.204-14.538-38.291-5.477c-0.425,0.319-0.835,0.65-1.237,0.989c-2.356-1.832-4.866-3.401-7.489-4.703
	c0.524-4.199-0.503-8.598-3.242-12.251c-5.609-7.481-16.223-9-23.705-3.391c-4.323,3.242-6.641,8.155-6.757,13.168
	c-4.53,1.478-8.901,3.699-12.926,6.716c-5.551,4.162-9.855,9.368-12.846,15.141c-7.142-5.152-16.907-5.604-24.604-0.719
	c-14.256-6.257-31.377-4.87-44.723,5.136c-19.711,14.778-23.711,42.738-8.933,62.449c7.823,10.436,19.341,16.465,31.374,17.639
	c0.14,0.192,0.269,0.389,0.412,0.58c10.316,13.761,27.054,19.853,42.927,17.258c1.421,5.426,3.885,10.675,7.458,15.439
	c1.076,1.435,2.229,2.776,3.437,4.044c-3.645,6.428-5.729,13.784-5.729,21.612c0,17.906,10.828,33.388,26.557,40.794
	c-0.305,2.081-0.474,4.204-0.474,6.366c0,25.1,21.267,45.447,47.5,45.447c13.006,0,24.786-5.006,33.364-13.107
	c8.578,8.102,20.358,13.107,33.364,13.107c0.607,0,1.208-0.022,1.81-0.044c6.121,18.329,24.062,31.604,45.249,31.604
	c10.922,0,20.975-3.536,28.999-9.464c8.681,10.849,22.348,17.851,37.731,17.851c18.415,0,34.371-10.033,42.252-24.691
	c2.918,3.397,6.396,6.392,10.404,8.836c21.43,13.068,49.874,5.508,63.534-16.889c3.346-5.486,5.486-11.354,6.509-17.278
	c8.711,10.181,21.945,16.68,36.769,16.68c26.233,0,47.5-20.348,47.5-45.448c0-2.068-0.158-4.1-0.438-6.095
	c8.32,6.863,19.146,11.022,30.992,11.022c26.233,0,47.5-20.348,47.5-45.447c0-12.6-5.361-23.999-14.017-32.231
	c6.868-4.369,12.473-10.403,16.198-17.5c3.358,0.72,6.846,1.112,10.431,1.112c9.439,0,18.23-2.64,25.622-7.183
	c0.416,0.615,0.848,1.225,1.298,1.825c14.779,19.713,42.74,23.713,62.451,8.934c9.271-6.95,15.064-16.816,17.064-27.369
	c12.204,2.643,25.441,0.188,36.216-7.892C816.476,272.168,820.475,244.208,805.696,224.496z M188.594,327.691
	c-2.168-2.915-4.689-5.568-7.498-7.916c1.083-2.43,1.947-4.943,2.578-7.51c0.686-0.665,1.354-1.348,1.997-2.052
	c4.479,0.813,9.075,0.939,13.622,0.363C194.505,315.4,190.809,321.222,188.594,327.691z M282.14,375.85
	c-2.416-3.439-5.316-6.538-8.597-9.224c0.606-0.891,1.184-1.8,1.726-2.731c1.959,3.678,4.418,7.07,7.306,10.086
	C282.417,374.6,282.27,375.221,282.14,375.85z"/>
<path fill="#A79F96" d="M128.46,319.501c0,0,60.468-94.971,101.54,0c0,0,66.742,137.755,261.836,49.905l11.409,150.599
	l-357.672,2.282L128.46,319.501z"/>
<path fill="#9C8C81" d="M155.271,379.675l-21.106,86.138l63.891,27.381l105.533,19.967C230,190.286,155.271,379.675,155.271,379.675
	z"/>
<path fill="#B6ADA2" d="M809.154,343.736C649.999-16.218,535.338,503.541,535.338,503.541l305.307-66.675L809.154,343.736z"/>
<path fill="#9C8C81" d="M606.073,365.983c-119.225-229.297-203.65,113.521-203.65,113.521l239.019-21.107L606.073,365.983z"/>
<path fill="#B6ADA2" d="M191.21,439.572c0,0-121.506-443.241-187.678-19.396l99.258,53.622L191.21,439.572z"/>
<circle fill="#FFFFFF" cx="1656.798" cy="343.289" r="67.163"/>
<circle fill="#FFFFFF" cx="1724.556" cy="321.703" r="41.18"/>
<circle fill="#FFFFFF" cx="1737.016" cy="396.303" r="67.162"/>
<circle fill="#FFFFFF" cx="1661.438" cy="280.009" r="25.493"/>
<circle fill="#FFFFFF" cx="1648.104" cy="443.286" r="67.163"/>
<g>
	<polygon fill="#87B6A5" points="524.219,416.414 512.286,418.545 511.648,408.852 502.063,397.128 490.237,397.128 
		477.777,405.976 477.777,393.728 462.01,386.375 453.917,390.744 453.339,375.235 444.772,366.67 424.832,372.848 424.832,402.567 
		412.983,399.584 412.983,370.29 409.813,370.29 409.813,366.03 408.002,366.03 408.002,364.221 405.126,364.221 405.126,363.049 
		402.568,363.049 402.568,361.448 399.8,361.448 399.8,356.657 397.35,356.657 397.35,330.026 394.792,330.026 394.792,356.657 
		393.088,356.657 393.088,362.088 390.581,362.088 390.581,363.899 388.295,363.899 388.295,366.67 385.844,366.67 385.844,370.504 
		382.754,370.504 382.754,403.208 371.356,403.208 371.356,385.311 364.17,376.043 342.383,380.412 342.383,404.626 
		333.861,406.829 333.861,430.264 325.979,430.264 325.979,419.081 319.489,413.432 298.98,420.145 298.98,441.02 288.589,441.02 
		288.589,431.54 269.844,431.54 264.518,438.116 264.518,459.738 256.846,459.738 256.846,484.161 532.207,472.869 532.207,446.029 
		532.207,425.044 	"/>
	<polygon fill="#7CA794" points="533.198,438.985 519.045,438.985 519.045,426.63 506.766,420.491 495.593,420.491 495.593,416.397 
		470.438,397.812 466.347,408.044 466.347,453.406 469.244,469.439 546.673,470.291 546.673,443.318 	"/>
	<g>
		<rect x="473.848" y="467.904" fill="#63927F" width="2.56" height="1.535"/>
		<polygon fill="#63927F" points="506.766,438.985 506.766,420.491 476.407,420.491 476.407,433.283 478.966,433.283 
			478.966,442.663 476.407,442.663 476.407,467.904 533.198,467.904 533.198,438.985 		"/>
		<polygon fill="#63927F" points="470.438,430.213 470.438,397.128 460.813,401.732 460.813,419.813 457.988,467.904 
			473.848,467.904 473.848,430.213 		"/>
	</g>
	<g>
		<polygon fill="#80A692" points="312.843,480.149 289.737,480.149 291.664,439.328 301.291,441.639 301.291,459.738 
			306.297,459.738 306.297,472.062 312.843,472.062 		"/>
		<polygon fill="#63927F" points="253.153,482.074 253.153,465.9 275.874,462.822 275.874,443.565 291.664,439.328 291.664,460.702 
			294.358,460.702 294.358,473.602 298.98,473.602 298.98,480.534 		"/>
	</g>
	<polygon fill="#7CA794" points="343.758,446.679 343.758,479.193 311.317,479.769 316.664,433.093 326.201,437.719 
		326.201,441.547 338.05,441.547 	"/>
	<polygon fill="#63927F" points="298.98,442.704 316.664,432.734 316.664,449.423 320.06,449.423 320.06,441.547 338.05,441.547 
		338.05,450.002 335.376,450.002 335.376,473.121 340,473.121 340,479.769 300.695,479.769 	"/>
	<polygon fill="#7CA794" points="392.749,477.82 393.617,423.706 369.12,410.914 365.945,432.734 364.501,470.665 361.827,478.614 	
		"/>
	<polygon fill="#63927F" points="369.12,457.154 369.12,410.914 343.758,430.928 343.758,479.193 384.582,480.927 384.582,454.336 	
		"/>
	<polygon fill="#7CA794" points="460.813,450.869 460.813,419.438 454.382,414.418 442.895,414.418 442.895,408.168 
		433.358,404.626 429.384,411.275 424.832,433.601 424.832,471.604 464.715,469.221 464.715,453.974 	"/>
	<polygon fill="#63927F" points="451.203,445.922 451.203,423.631 454.382,423.631 454.382,414.418 436.682,414.418 
		436.682,424.568 433.358,424.568 433.358,404.267 417.965,413.373 417.965,418.14 412.983,473.699 454.962,473.699 
		454.962,445.922 	"/>
	<polygon fill="#7CA794" points="422.52,445.922 422.52,432.23 419.34,432.23 419.34,417.417 408.355,411.71 404.672,474.929 
		429.384,474.929 429.384,445.922 	"/>
	<polygon fill="#63927F" points="410.884,448.123 410.884,433.386 408.355,433.386 408.355,411.275 392.893,417.417 
		392.893,441.404 390.581,441.404 390.581,475.579 390.581,475.796 416.736,475.579 416.736,448.123 	"/>
</g>
<ellipse transform="matrix(0.9976 -0.0692 0.0692 0.9976 -33.6209 39.579)" fill="#6CA843" cx="554.583" cy="505.167" rx="242.48" ry="54.193"/>
<ellipse fill="#6CA843" cx="218.025" cy="499.121" rx="195.379" ry="66.395"/>
<g>
	<polygon fill="#56A758" points="661.577,393.569 691.788,335.73 729.34,393.569 714.664,390.978 737.542,417.737 721.141,421.623 
		734.951,443.205 720.275,443.205 719.844,453.563 669.776,453.563 665.46,444.93 650.353,445.36 663.303,429.822 652.081,423.349 
		673.23,390.546 	"/>
	<polygon fill="#735F36" points="684.884,450.972 684.884,491.407 703.442,491.407 703.442,457.197 	"/>
	<path fill="#5DAE60" d="M691.788,335.73l35.731,57.518l-12.855-2.271l22.878,26.76l-16.401,3.886l13.811,21.582h-14.676
		l-0.432,10.358h-50.067l31.077-8.634l11.653-2.588l0.863-8.633l-19.206,0.865l17.911-14.677l10.791-6.043
		c0,0-18.127-20.718-16.833-19.208c1.295,1.511-21.149,8.85-21.149,8.85l20.718-20.286l4.317-4.749L691.788,335.73z"/>
</g>
<g>
	<polygon fill="#62BD64" points="708.14,356.095 745.757,284.08 792.513,356.095 774.238,352.869 802.725,386.188 782.304,391.026 
		799.498,417.897 781.226,417.897 780.688,430.796 718.349,430.796 712.974,420.046 694.163,420.583 710.288,401.235 
		696.315,393.175 722.649,352.331 	"/>
	<polygon fill="#735F36" points="737.159,427.569 737.159,463.738 760.266,463.738 760.266,433.138 	"/>
	<path fill="#5DAE60" d="M745.757,284.08l44.488,71.616l-16.007-2.827l28.486,33.319l-20.421,4.838l17.194,26.871h-18.272
		l-0.537,12.898h-62.34l38.695-10.75l14.509-3.223l1.075-10.75l-23.913,1.078l22.302-18.273l13.436-7.523
		c0,0-22.571-25.797-20.959-23.917c1.611,1.881-26.334,11.02-26.334,11.02l25.797-25.26l5.375-5.912L745.757,284.08z"/>
</g>
<g>
	<polygon fill="#62BD64" points="620.648,420.928 642.084,379.893 668.726,420.928 658.313,419.091 674.545,438.076 
		662.909,440.833 672.706,456.146 662.294,456.146 661.987,463.495 626.466,463.495 623.403,457.369 612.685,457.676 
		621.873,446.65 613.911,442.058 628.917,418.784 	"/>
	<polygon fill="#735F36" points="637.185,461.656 637.185,473.599 650.352,473.599 650.352,463.495 	"/>
	<path fill="#5DAE60" d="M642.084,379.893l25.35,40.809l-9.12-1.61l16.231,18.985l-11.636,2.757l9.797,15.313h-10.412l-0.307,7.35
		h-35.521l22.049-6.126l8.269-1.836l0.612-6.126l-13.627,0.614l12.708-10.412l7.656-4.287c0,0-12.861-14.699-11.942-13.628
		c0.918,1.07-15.006,6.278-15.006,6.278l14.699-14.393l3.063-3.369L642.084,379.893z"/>
</g>
<g>
	<polygon fill="#56A758" points="586.749,433.907 605.451,398.103 628.698,433.907 619.612,432.304 633.775,448.87 623.622,451.275 
		632.172,464.635 623.086,464.635 622.819,471.049 591.825,471.049 589.152,465.703 579.8,465.97 587.817,456.351 580.87,452.344 
		593.963,432.036 	"/>
	<polygon fill="#735F36" points="601.178,469.443 601.178,479.864 612.666,479.864 612.666,471.049 	"/>
	<path fill="#5DAE60" d="M605.451,398.103l22.12,35.606l-7.959-1.405l14.163,16.566l-10.153,2.405l8.55,13.359h-9.086l-0.267,6.414
		h-30.994l19.237-5.346l7.215-1.603l0.534-5.345l-11.89,0.536l11.089-9.085l6.68-3.74c0,0-11.222-12.826-10.421-11.892
		s-13.092,5.479-13.092,5.479l12.825-12.559l2.673-2.94L605.451,398.103z"/>
</g>
<g>
	<polygon fill="#56A758" points="226.212,412.76 248.549,369.998 276.312,412.76 265.461,410.844 282.376,430.629 270.25,433.501 
		280.46,449.457 269.61,449.457 269.291,457.116 232.275,457.116 229.083,450.732 217.914,451.052 227.489,439.563 219.192,434.777 
		234.829,410.524 	"/>
	<polygon fill="#735F36" points="243.444,455.2 243.444,467.645 257.165,467.645 257.165,457.116 	"/>
	<path fill="#5DAE60" d="M248.549,369.998l26.416,42.524l-9.504-1.679l16.915,19.785l-12.127,2.872l10.211,15.956H269.61
		l-0.319,7.659h-37.016l22.977-6.384l8.615-1.913l0.638-6.384l-14.199,0.641l13.242-10.851l7.979-4.467
		c0,0-13.402-15.318-12.445-14.202s-15.637,6.543-15.637,6.543l15.317-14.999l3.192-3.511L248.549,369.998z"/>
</g>
<g>
	<polygon fill="#62BD64" points="179.794,397.63 205.575,348.276 237.617,397.63 225.093,395.418 244.616,418.253 230.621,421.568 
		242.405,439.983 229.881,439.983 229.513,448.823 186.792,448.823 183.108,441.456 170.216,441.824 181.267,428.565 
		171.692,423.041 189.739,395.051 	"/>
	<polygon fill="#735F36" points="199.682,446.612 199.682,460.976 215.518,460.976 215.518,448.823 	"/>
	<path fill="#5DAE60" d="M205.575,348.276l30.488,49.08l-10.97-1.938l19.522,22.835l-13.995,3.315l11.784,18.415h-12.523
		l-0.368,8.84h-42.722l26.518-7.367l9.944-2.208l0.736-7.367l-16.389,0.738l15.284-12.522l9.207-5.156
		c0,0-15.468-17.679-14.363-16.391s-18.047,7.551-18.047,7.551l17.679-17.311l3.684-4.052L205.575,348.276z"/>
</g>
<g>
	<polygon fill="#51A054" points="110.03,368.386 145.17,301.113 188.847,368.386 171.776,365.372 198.387,396.498 179.31,401.017 
		195.373,426.118 178.303,426.118 177.801,438.167 119.567,438.167 114.546,428.125 96.975,428.627 112.037,410.554 98.985,403.023 
		123.585,364.87 	"/>
	<polygon fill="#735F36" points="137.139,435.153 137.139,454.731 158.725,454.731 158.725,438.167 	"/>
	<path fill="#5DAE60" d="M145.17,301.113l41.559,66.9l-14.952-2.642l26.61,31.126l-19.077,4.519l16.063,25.102h-17.07l-0.502,12.049
		h-58.233l36.146-10.042l13.554-3.011l1.004-10.042l-22.338,1.008l20.832-17.07l12.551-7.027c0,0-21.083-24.098-19.578-22.342
		s-24.6,10.293-24.6,10.293l24.098-23.597l5.021-5.522L145.17,301.113z"/>
</g>
<g>
	<polygon fill="#62BD64" points="20.838,329.759 64.101,246.936 117.874,329.759 96.857,326.048 129.619,364.368 106.132,369.933 
		125.908,400.836 104.892,400.836 104.275,415.67 32.58,415.67 26.398,403.307 4.764,403.925 23.309,381.673 7.24,372.403 
		37.526,325.43 	"/>
	<polygon fill="#735F36" points="54.212,411.959 54.212,436.063 80.788,436.063 80.788,415.67 	"/>
	<path fill="#5DAE60" d="M64.101,246.936l51.165,82.364l-18.409-3.252l32.762,38.32l-23.486,5.564l19.775,30.903h-21.016
		l-0.617,14.834H32.58l44.502-12.363l16.688-3.706l1.235-12.363l-27.502,1.24l25.648-21.016l15.452-8.652
		c0,0-25.957-29.669-24.104-27.507c1.854,2.162-30.286,12.672-30.286,12.672l29.669-29.05l6.182-6.8L64.101,246.936z"/>
</g>
<path fill="#57893D" d="M805.919,389.256c-1.776-11.888-12.026-21.006-24.408-21.006c-13.632,0-24.683,11.051-24.683,24.682
	c0,0.337,0.012,0.671,0.025,1.004c-1.715-0.638-3.563-1.003-5.499-1.003c-8.728,0-15.804,7.075-15.804,15.804
	c0,4.837,2.179,9.16,5.603,12.06c-8.026,3.009-13.751,10.729-13.751,19.808c0,2.862,0.575,5.589,1.604,8.079
	c-6.084,1.252-10.658,6.636-10.658,13.09c0,7.382,5.983,13.365,13.365,13.365c7.381,0,13.364-5.983,13.364-13.365
	c0-0.106-0.014-0.208-0.016-0.313c1.145,0.191,2.312,0.314,3.511,0.314c6.255,0,11.859-2.729,15.735-7.043
	c7.602,10.97,20.273,18.16,34.63,18.16c23.257,0,42.11-18.854,42.11-42.111C841.049,409.901,825.852,392.582,805.919,389.256z"/>
<path fill="#57893D" d="M128.46,422.318c-0.125,0-0.245,0.016-0.369,0.019c0.239-1.135,0.369-2.31,0.369-3.516
	c0-9.382-7.605-16.986-16.986-16.986c-3.081,0-5.961,0.833-8.453,2.267c0.192-0.725,0.304-1.481,0.304-2.267
	c0-4.881-3.957-8.838-8.838-8.838c-1.518,0-2.945,0.384-4.193,1.058c0.11-1.139,0.17-2.291,0.17-3.458
	c0-19.521-15.825-35.347-35.347-35.347c-14.506,0-26.965,8.742-32.413,21.242c-11.539,7.511-19.174,20.515-19.174,35.309
	c0,21.309,15.83,38.91,36.369,41.712c2.116,21.276,20.066,37.895,41.9,37.895c23.257,0,42.111-18.854,42.111-42.111
	c0-0.271-0.015-0.54-0.021-0.811c1.429,0.515,2.963,0.811,4.569,0.811c7.45,0,13.489-6.039,13.489-13.489
	C141.949,428.357,135.91,422.318,128.46,422.318z M87.502,407.234c0.102,0.132,0.206,0.261,0.315,0.386
	c-0.091-0.013-0.184-0.022-0.275-0.034C87.531,407.468,87.515,407.352,87.502,407.234z"/>
<path fill="#7EC242" d="M420.945,485.208C248.512,484.637,0,411.802,0,411.802V595.28h841.89V411.802
	C728.736,495.269,420.945,485.208,420.945,485.208z"/>
</svg>
